<?xml version="1.0" encoding="utf-8"?>
<!-- Generator: Adobe Illustrator 16.0.0, SVG Export Plug-In . SVG Version: 6.00 Build 0)  -->
<!DOCTYPE svg PUBLIC "-//W3C//DTD SVG 1.1//EN" "http://www.w3.org/Graphics/SVG/1.1/DTD/svg11.dtd">
<svg version="1.1" id="Layer_1" xmlns="http://www.w3.org/2000/svg" xmlns:xlink="http://www.w3.org/1999/xlink" x="0px" y="0px"
	 width="1916.936px" height="383.75px" viewBox="0 0 1916.936 383.75" enable-background="new 0 0 1916.936 383.75"
	 xml:space="preserve">
<g>
	<path fill="#0860A5" d="M395.711,279.387h14.199c6.199,0,8.199-2,8.199-7.2v-88.599c0-5.199-2-7.199-8.199-7.199h-14.199v-14.8
		h74.199c39.199,0,51.799,12.199,51.799,32.799c0,17.6-11.801,26.6-28,29.2v0.399c16.6,3.601,32.6,10.601,32.6,33.399
		c0,21.6-11.6,36.8-44.799,36.8h-85.799V279.387z M446.109,217.987h19.199c15.801,0,28.4-2.8,28.4-20.399
		c0-18.399-12.6-21.199-28.4-21.199h-19.199V217.987z M446.109,279.387h22.4c16,0,29.799-3,29.799-23.199
		c0-20-13.799-23.4-29.799-23.4h-22.4V279.387z"/>
	<path fill="#0860A5" d="M646.506,259.387v6c0,22.399-9,31.8-25.799,31.8c-10,0-18.6-4.2-20.199-14.8
		c-7.4,11.2-20.201,14.8-32.801,14.8c-15.6,0-27.799-7.4-27.799-25.399c0-38.8,59.998-20,59.998-48.199
		c0-12.8-10.799-15.2-21.398-15.2c-5.6,0-15,1.8-18.6,6.6c7.4-1,13.199,2.2,13.199,10.4c0,9-6.199,11.8-14,11.8
		c-8.6,0-14.4-6.6-14.4-14.8c0-20.399,24.4-24.8,40.201-24.8c26.998,0,38.598,12.2,38.598,29v48.999c0,4.399,1.801,6.6,4.801,6.6
		s5.4-2.8,5.4-15.199v-7.601H646.506z M599.906,244.787l-21.199,9.6c-5.799,2.601-12,5.801-12,15.2c0,8.399,3.801,12.6,12,12.6
		c13.6,0,21.199-11.6,21.199-24.399V244.787z"/>
	<path fill="#0860A5" d="M744.508,255.787c-1.801,26.8-15.801,41.399-43,41.399c-30.801,0-47-17.8-47-49.999
		c0-29.6,23.4-49.6,49.4-49.6c23.199,0,41.199,12.6,41.199,29.399c0,8.8-5.801,16.6-14.4,16.6c-7,0-15.6-3.6-15.6-11.999
		c0-8,3.801-12.4,11.799-13c-4.398-5.8-11.199-7.8-18.998-7.8c-20.801,0-26.6,19.6-26.6,34.799c0,15.2,5,34.8,25.799,34.8
		c12,0,20.4-10.2,21.799-24.6H744.508z"/>
	<path fill="#0860A5" d="M751.309,294.187v-13.2h10.799c5.6,0,8-2.199,8-7.999v-90.199c0-5.8-2.4-8-8-8h-10.799v-13.199h42.398
		v84.998l31.801-25.799c2-1.601,2.799-3,2.799-4.601c0-1.6-2.6-2.399-4.4-2.399h-13.398v-13.2h59.199v13.2
		c-7,0-13.4,2.199-18.4,6.199l-21.6,17l26.6,36.199c4.4,6,11.801,7.8,20.4,7.8v13.2h-59.199v-13.2h8.799c2.4,0,3.4-1,3.4-3
		c0-1.6-0.801-2.8-2.199-4.8l-15.4-21.8l-18.4,14.4v7.2c0,5.8,2.4,7.999,8,7.999h6.4v13.2H751.309z"/>
	<path fill="#0860A5" d="M945.105,213.788v-12.601c20.4-1.399,25.6-19.399,27.4-37.799h12.398v37.199h26.4v13.2h-25.799v58.999
		c0,4,2.199,6.6,7.6,6.6c6.199,0,8.6-3.4,8.6-11.399v-17.8h13.199v16.8c0,20.999-11.6,30.199-27.398,30.199
		c-15,0-25.6-6.2-25.6-22.199v-61.199H945.105z"/>
	<path fill="#0860A5" d="M1065.504,216.388h0.4c8.199-10.8,19.199-18.8,34.799-18.8c17.6,0,28.4,11,28.4,28v47.399
		c0,5.8,2.398,7.999,8,7.999h11.199v13.2h-58.398v-13.2h7.6c5.6,0,8-2.199,8-7.999v-45.8c0-10.2-7-14-17.6-14
		c-10.4,0-22.4,11-22.4,28.6v31.2c0,5.8,2.4,7.999,8,7.999h7.799v13.2h-58.799v-13.2h11.4c5.6,0,8-2.199,8-7.999v-90.199
		c0-5.8-2.4-8-8-8h-11.4v-13.199h43V216.388z"/>
	<path fill="#0860A5" d="M1179.502,249.787c-0.6,15.6,4.201,32.399,22.801,32.399c14.398,0,21.6-7.399,24.199-21.199h16.6
		c-2.6,22.8-16.4,36.199-43,36.199c-30.998,0-47.398-17.399-47.398-49.799c0-29.2,18.799-49.8,46.398-49.8
		c32.801,0,46.6,29.399,44.4,52.199H1179.502z M1216.701,236.587c0.201-12.6-3.799-24.999-17.998-24.999
		c-13.602,0-18.6,12.399-19.201,24.999H1216.701z"/>
	<path fill="#0860A5" d="M1313.9,279.387h14.201c6.199,0,8.199-2,8.199-7.2v-88.599c0-5.199-2-7.199-8.199-7.199H1313.9v-14.8
		h74.199c39.199,0,51.799,12.199,51.799,32.799c0,17.6-11.799,26.6-27.998,29.2v0.399c16.6,3.601,32.598,10.601,32.598,33.399
		c0,21.6-11.6,36.8-44.799,36.8H1313.9V279.387z M1364.301,217.987h19.199c15.799,0,28.4-2.8,28.4-20.399
		c0-18.399-12.602-21.199-28.4-21.199h-19.199V217.987z M1364.301,279.387h22.398c16,0,29.801-3,29.801-23.199
		c0-20-13.801-23.4-29.801-23.4h-22.398V279.387z"/>
	<path fill="#0860A5" d="M1484.896,249.787c-0.6,15.6,4.201,32.399,22.801,32.399c14.398,0,21.6-7.399,24.199-21.199h16.6
		c-2.6,22.8-16.4,36.199-43,36.199c-30.998,0-47.398-17.399-47.398-49.799c0-29.2,18.799-49.8,46.398-49.8
		c32.801,0,46.6,29.399,44.4,52.199H1484.896z M1522.096,236.587c0.201-12.6-3.799-24.999-17.998-24.999
		c-13.602,0-18.6,12.399-19.201,24.999H1522.096z"/>
	<path fill="#0860A5" d="M1600.297,217.987h0.4c8.199-12.399,19.199-20.399,34.799-20.399c17.6,0,28.4,10.6,28.4,32.199v43.2
		c0,5.8,2.398,7.999,12,7.999h7.199v13.2h-58.398v-13.2h4.799c8.4,0,10.801-2.199,10.801-7.999v-41.6c0-15-8-18.2-17.6-18.2
		c-9.602,0-22.4,10.2-22.4,23v36.8c0,5.8,2.4,7.999,8,7.999h7.799v13.2h-58.799v-13.2h11.4c5.6,0,8-2.199,8-7.999v-48.399
		c0-8.601-2.4-10.8-12.801-10.8h-6.6v-13.2h43V217.987z"/>
	<path fill="#0860A5" d="M1756.295,277.787h-0.4c-8,13.6-18.199,19.399-31.398,19.399c-27.801,0-39.6-25.199-39.6-49.799
		s14.6-49.8,39.6-49.8c15.799,0,26.799,9.8,31.398,17.2h0.4v-31.2c0-6-2-8.8-8.199-8.8h-12.6v-13.199h44.398v110.598
		c0,6,1.801,8.8,8,8.8h10.4v13.2h-42V277.787z M1732.295,281.587c13.4,0,24-11.2,24-35.399c0-21.8-10.6-33-24-33
		s-20.6,11.2-20.6,34.2C1711.695,270.387,1718.895,281.587,1732.295,281.587z"/>
</g>
<polygon fill="#005EA0" points="216.629,211.665 143.053,211.665 129.247,54.994 227.249,47.56 "/>
<rect x="94.015" y="305.765" fill="#00AB94" width="180.795" height="28.501"/>
<polygon fill="#00BCF1" points="274.262,211.665 214.976,211.665 200.929,108.089 288.311,97.47 "/>
<polygon fill="#DEE35E" points="149.62,211.665 90.912,211.665 70.736,87.913 157.056,97.47 "/>
<polygon fill="#FFFFFF" points="102.031,130.867 91.601,130.867 89.477,106.64 102.031,108.764 "/>
<polygon fill="#FFFFFF" points="122.015,135.467 111.584,135.467 109.46,113.363 122.015,114.426 "/>
<polygon fill="#FFFFFF" points="209.374,95.854 196.821,95.854 194.697,69.504 210.438,67.379 "/>
<polygon fill="#FFFFFF" points="188.009,107.611 176.886,107.611 175.003,82.383 188.95,81.441 "/>
<polygon fill="#FFFFFF" points="182.918,180.738 194.042,180.738 195.925,155.509 181.979,154.567 "/>
<polygon fill="#FFFFFF" points="229.293,153.771 218.169,153.771 216.286,128.543 230.232,127.602 "/>
<polygon fill="#FFFFFF" points="268.169,173.495 257.045,173.495 255.162,148.266 269.109,147.324 "/>
<polygon fill="#FFFFFF" points="249.21,193.823 238.086,193.823 236.205,168.594 250.152,167.654 "/>
<polygon fill="#FFFFFF" points="122.454,187.722 113.087,188.784 110.961,166.68 123.516,165.618 "/>
<polygon fill="#FFFFFF" points="140.739,171.276 131.372,171.276 129.247,143.996 141.802,145.306 "/>
<g>
	<path fill="#005EA0" d="M93.769,243.132h2.344c1.022,0,1.353-0.33,1.353-1.188v-14.621c0-0.857-0.33-1.188-1.353-1.188h-2.344
		v-2.442h12.245c6.469,0,8.548,2.013,8.548,5.412c0,2.904-1.947,4.39-4.62,4.819v0.065c2.739,0.595,5.379,1.75,5.379,5.512
		c0,3.564-1.914,6.073-7.393,6.073H93.769V243.132z M102.086,232.999h3.168c2.607,0,4.688-0.462,4.688-3.366
		c0-3.036-2.08-3.498-4.688-3.498h-3.168V232.999z M102.086,243.132h3.696c2.641,0,4.918-0.495,4.918-3.828
		c0-3.301-2.277-3.862-4.918-3.862h-3.696V243.132z"/>
	<path fill="#005EA0" d="M117.431,245.574v-2.442c1.749,0,2.904-0.231,3.466-1.782l6.304-17.657h4.621l6.601,17.657
		c0.594,1.551,1.716,1.782,3.466,1.782v2.442h-11.486v-2.442h2.607c0.76,0,1.023-0.165,1.023-0.495c0-0.297-0.066-0.594-0.132-0.792
		l-1.09-3.301h-7.491l-1.09,3.301c-0.065,0.198-0.132,0.396-0.132,0.693c0,0.462,0.429,0.594,1.057,0.594h2.574v2.442H117.431z
		 M131.854,236.102l-2.871-7.954h-0.066l-2.64,7.954H131.854z"/>
	<path fill="#005EA0" d="M160.896,223.362h2.343v9.043h-2.442c-0.429-3.598-2.277-6.535-6.237-6.535
		c-4.852,0-6.073,4.423-6.073,8.746c0,4.258,1.32,8.779,6.073,8.779c3.763,0,5.577-2.64,5.94-6.139h2.839
		c-0.396,5.743-3.697,8.978-9.473,8.978c-6.931,0-10.562-4.885-10.562-11.915c0-6.205,4.093-11.287,10.957-11.287
		c2.146,0,4.555,1.022,6.008,2.409L160.896,223.362z"/>
	<path fill="#005EA0" d="M178.782,243.132h2.211c0.528,0,0.99-0.099,0.99-0.594c0-0.198-0.099-0.462-0.297-0.76L177,234.979
		l-3.466,2.971v3.993c0,0.858,0.33,1.188,1.354,1.188h1.947v2.442h-11.617v-2.442h1.749c1.518,0,1.947-0.693,1.947-1.782v-14.027
		c0-0.857-0.33-1.188-1.354-1.188h-2.343v-2.442h11.617v2.442h-1.947c-1.023,0-1.354,0.33-1.354,1.188v6.767l7.097-6.47
		c0.495-0.429,0.759-0.759,0.759-1.056c0-0.264-0.198-0.429-0.594-0.429h-2.08v-2.442h11.585v2.442h-1.221
		c-1.98,0-2.938,0.594-4.291,1.782l-4.653,4.06l7.029,9.67c0.892,1.222,1.782,1.485,2.509,1.485h1.716v2.442h-12.607V243.132z"/>
	<path fill="#005EA0" d="M223.302,223.692v9.01h-2.442v-1.485c0-3.498-1.815-5.082-5.479-5.082v15.809
		c0,0.858,0.33,1.188,1.354,1.188h2.508v2.442h-12.344v-2.442h2.509c1.022,0,1.353-0.33,1.353-1.188v-15.809
		c-3.663,0-5.479,1.584-5.479,5.082v1.485h-2.442v-9.01H223.302z"/>
	<path fill="#005EA0" d="M224.817,245.574v-2.442h2.179c1.023,0,1.354-0.33,1.354-1.188v-14.621c0-0.857-0.33-1.188-1.354-1.188
		h-2.179v-2.442h12.014v2.442h-2.508c-1.023,0-1.354,0.33-1.354,1.188v5.842h9.671v-5.842c0-0.857-0.33-1.188-1.354-1.188h-2.509
		v-2.442h12.014v2.442h-2.178c-1.023,0-1.354,0.33-1.354,1.188v14.621c0,0.858,0.33,1.188,1.354,1.188h2.178v2.442h-12.014v-2.442
		h2.509c1.023,0,1.354-0.33,1.354-1.188v-6.337h-9.671v6.337c0,0.858,0.33,1.188,1.354,1.188h2.508v2.442H224.817z"/>
	<path fill="#005EA0" d="M252.176,245.574v-2.442h1.849c1.122,0,1.749-0.33,1.749-2.311v-12.839c0-1.419-0.396-1.848-2.112-1.848
		h-1.485v-2.442h21.783v8.713h-2.442c-0.495-4.488-0.891-6.271-5.313-6.271h-5.809v6.864h1.749c1.98,0,2.871-0.99,2.871-3.663
		v-0.429h2.442v11.023h-2.442v-0.792c0-2.674-0.891-3.697-2.871-3.697h-1.749v7.69h6.601c3.036,0,4.225-1.881,4.521-6.799h2.442
		v9.241H252.176z"/>
</g>
<g>
	<path fill="#005EA0" d="M92.846,289.711h4.295c1.875,0,2.48-0.605,2.48-2.178v-26.795c0-1.573-0.605-2.178-2.48-2.178h-4.295
		v-4.477h22.44c11.855,0,15.666,3.69,15.666,9.92c0,5.323-3.568,8.045-8.468,8.831v0.121c5.021,1.089,9.859,3.206,9.859,10.101
		c0,6.533-3.509,11.13-13.549,11.13H92.846V289.711z M108.089,271.142h5.807c4.778,0,8.589-0.847,8.589-6.17
		c0-5.564-3.811-6.411-8.589-6.411h-5.807V271.142z M108.089,289.711h6.774c4.839,0,9.012-0.907,9.012-7.017
		c0-6.049-4.173-7.077-9.012-7.077h-6.774V289.711z"/>
	<path fill="#005EA0" d="M136.211,294.187v-4.476h3.387c2.057,0,3.206-0.605,3.206-4.234v-23.529c0-2.601-0.726-3.387-3.871-3.387
		h-2.722v-4.477h39.921v15.969h-4.477c-0.907-8.227-1.633-11.492-9.738-11.492h-10.646v12.581h3.206
		c3.629,0,5.263-1.814,5.263-6.714v-0.786h4.476v20.202h-4.476v-1.452c0-4.899-1.634-6.774-5.263-6.774h-3.206v14.094h12.098
		c5.564,0,7.742-3.448,8.286-12.461h4.477v16.937H136.211z"/>
	<path fill="#005EA0" d="M193.003,261.706h-0.121v25.585c0,1.452,0.907,2.42,2.48,2.42h4.536v4.476h-20.021v-4.476h4.233
		c1.875,0,2.48-0.968,2.48-2.42v-26.553c0-1.573-0.605-2.178-2.48-2.178h-4.233v-4.477h17.843l17.602,28.853h0.121v-21.533
		c0-1.814-0.968-2.843-3.146-2.843h-3.689v-4.477h19.719v4.477h-3.569c-2.177,0-3.023,0.907-3.023,2.117v33.509h-8.952
		L193.003,261.706z"/>
	<path fill="#005EA0" d="M230.259,289.711h3.871c1.391,0,2.601-0.484,2.601-2.057v-27.037c0-1.573-1.21-2.057-2.601-2.057h-3.871
		v-4.477h24.134c12.157,0,20.202,6.774,20.202,20.021c0,13.246-8.045,20.081-20.202,20.081h-24.134V289.711z M245.198,289.711h7.44
		c7.016,0,12.46-3.69,12.46-15.605c0-11.916-5.444-15.545-11.855-15.545h-8.045V289.711z"/>
</g>
<g>
	<path fill="#FFFFFF" d="M108.524,321.747c0.33,1.451,1.336,2.161,2.787,2.161c0.578,0,1.287-0.313,1.287-0.99
		c0-1.616-5.196-0.692-5.196-3.646c0-1.633,1.567-2.474,3.019-2.474c0.875,0,1.716,0.33,2.425,0.808l0.33-0.561h0.907v2.755h-1.072
		c-0.396-1.204-1.171-1.814-2.441-1.814c-0.544,0-1.253,0.23-1.253,0.891c0,1.287,5.195,0.677,5.195,3.695
		c0,1.731-1.468,2.44-3.019,2.44c-0.989,0-1.979-0.165-2.754-0.841l-0.33,0.594h-1.089v-3.019H108.524z"/>
	<path fill="#FFFFFF" d="M115.303,318.135v-1.039c1.683-0.115,2.111-1.601,2.26-3.117h1.022v3.067h2.177v1.089h-2.127v4.866
		c0,0.33,0.181,0.544,0.626,0.544c0.512,0,0.71-0.28,0.71-0.94v-1.468h1.089v1.386c0,1.731-0.957,2.49-2.26,2.49
		c-1.237,0-2.111-0.511-2.111-1.831v-5.047H115.303z"/>
	<path fill="#FFFFFF" d="M128.497,324.766v-1.303h-0.033c-0.677,1.204-1.699,1.55-2.788,1.55c-1.533,0-2.424-0.774-2.424-2.309
		v-3.909c0-0.479-0.198-0.66-0.66-0.66h-0.842v-1.089h3.448v5.477c0,0.692,0.462,1.204,1.27,1.204c1.402,0,2.029-1.336,2.029-2.128
		v-2.804c0-0.462-0.28-0.66-0.809-0.66h-0.891v-1.089h3.646v5.972c0,0.478,0.198,0.659,0.94,0.659h0.659v1.089H128.497z"/>
	<path fill="#FFFFFF" d="M138.755,323.413h-0.033c-0.66,1.122-1.501,1.6-2.59,1.6c-2.293,0-3.266-2.078-3.266-4.106
		c0-2.029,1.204-4.107,3.266-4.107c1.303,0,2.21,0.808,2.59,1.418h0.033v-2.573c0-0.494-0.165-0.726-0.677-0.726h-1.039v-1.088
		h3.662v9.121c0,0.495,0.148,0.726,0.659,0.726h0.858v1.089h-3.464V323.413z M136.775,323.727c1.104,0,1.979-0.924,1.979-2.92
		c0-1.798-0.875-2.722-1.979-2.722c-1.105,0-1.699,0.924-1.699,2.821C135.076,322.803,135.67,323.727,136.775,323.727z"/>
	<path fill="#FFFFFF" d="M145.037,321.104c-0.05,1.287,0.347,2.673,1.88,2.673c1.188,0,1.782-0.61,1.996-1.749h1.369
		c-0.215,1.881-1.353,2.985-3.546,2.985c-2.557,0-3.91-1.435-3.91-4.106c0-2.408,1.551-4.107,3.827-4.107
		c2.705,0,3.844,2.425,3.662,4.305H145.037z M148.104,320.016c0.017-1.04-0.312-2.062-1.484-2.062c-1.121,0-1.534,1.022-1.583,2.062
		H148.104z"/>
	<path fill="#FFFFFF" d="M154.553,318.481h0.033c0.677-1.023,1.584-1.683,2.87-1.683c1.452,0,2.343,0.874,2.343,2.655v3.563
		c0,0.478,0.197,0.659,0.989,0.659h0.594v1.089h-4.816v-1.089h0.396c0.693,0,0.892-0.182,0.892-0.659v-3.432
		c0-1.236-0.66-1.501-1.452-1.501s-1.848,0.842-1.848,1.897v3.035c0,0.478,0.198,0.659,0.66,0.659h0.644v1.089h-4.85v-1.089h0.94
		c0.462,0,0.659-0.182,0.659-0.659v-3.992c0-0.709-0.197-0.891-1.056-0.891h-0.544v-1.089h3.546V318.481z"/>
	<path fill="#FFFFFF" d="M162.04,318.135v-1.039c1.683-0.115,2.111-1.601,2.26-3.117h1.022v3.067h2.178v1.089h-2.128v4.866
		c0,0.33,0.181,0.544,0.626,0.544c0.512,0,0.71-0.28,0.71-0.94v-1.468h1.089v1.386c0,1.731-0.957,2.49-2.26,2.49
		c-1.237,0-2.111-0.511-2.111-1.831v-5.047H162.04z"/>
	<path fill="#FFFFFF" d="M174.953,321.747c0.33,1.451,1.336,2.161,2.787,2.161c0.578,0,1.287-0.313,1.287-0.99
		c0-1.616-5.196-0.692-5.196-3.646c0-1.633,1.567-2.474,3.019-2.474c0.875,0,1.716,0.33,2.425,0.808l0.33-0.561h0.907v2.755h-1.072
		c-0.396-1.204-1.171-1.814-2.441-1.814c-0.544,0-1.253,0.23-1.253,0.891c0,1.287,5.195,0.677,5.195,3.695
		c0,1.731-1.468,2.44-3.019,2.44c-0.989,0-1.979-0.165-2.754-0.841l-0.33,0.594h-1.089v-3.019H174.953z"/>
	<path fill="#FFFFFF" d="M183.975,321.104c-0.05,1.287,0.347,2.673,1.88,2.673c1.188,0,1.782-0.61,1.996-1.749h1.369
		c-0.215,1.881-1.353,2.985-3.546,2.985c-2.557,0-3.91-1.435-3.91-4.106c0-2.408,1.551-4.107,3.827-4.107
		c2.705,0,3.844,2.425,3.662,4.305H183.975z M187.042,320.016c0.017-1.04-0.312-2.062-1.484-2.062c-1.121,0-1.534,1.022-1.583,2.062
		H187.042z"/>
	<path fill="#FFFFFF" d="M193.49,318.3h0.033c0.66-0.99,1.171-1.501,2.062-1.501c1.056,0,1.995,0.61,1.995,1.814
		c0,0.742-0.445,1.386-1.253,1.386c-0.644,0-1.172-0.38-1.172-1.056c0-0.627,0.495-0.974,1.089-0.99
		c-0.182-0.198-0.445-0.23-0.692-0.23c-1.353,0-2.046,1.353-2.046,2.54v2.755c0,0.478,0.198,0.659,0.66,0.659h1.039v1.089h-5.212
		v-1.089h0.907c0.462,0,0.659-0.182,0.659-0.659v-4.223c0-0.479-0.197-0.66-0.659-0.66h-0.907v-1.089h3.496V318.3z"/>
	<path fill="#FFFFFF" d="M202.314,318.135h-0.562c-0.214,0-0.379,0.165-0.379,0.396c0,0.116,0.082,0.413,0.198,0.792l1.171,3.662
		h0.033l1.27-3.662c0.132-0.379,0.198-0.676,0.198-0.792c0-0.23-0.165-0.396-0.38-0.396h-0.742v-1.089h3.662v1.089
		c-0.742,0.05-1.006,0.297-1.154,0.726l-2.111,5.905h-2.128l-2.161-6.136c-0.115-0.347-0.28-0.495-1.072-0.495v-1.089h4.157V318.135
		z"/>
	<path fill="#FFFFFF" d="M207.476,324.766v-1.089h0.759c0.462,0,0.66-0.182,0.66-0.659v-4.223c0-0.479-0.198-0.66-0.66-0.66h-0.759
		v-1.089h3.365v5.972c0,0.478,0.198,0.659,0.659,0.659h0.809v1.089H207.476z M209.653,313.632c0.643,0,1.188,0.527,1.188,1.188
		s-0.545,1.188-1.188,1.188c-0.644,0-1.188-0.527-1.188-1.188S209.01,313.632,209.653,313.632z"/>
	<path fill="#FFFFFF" d="M220.291,321.599c-0.148,2.21-1.304,3.414-3.547,3.414c-2.54,0-3.876-1.468-3.876-4.123
		c0-2.441,1.93-4.091,4.074-4.091c1.913,0,3.397,1.039,3.397,2.425c0,0.726-0.479,1.369-1.188,1.369
		c-0.577,0-1.286-0.297-1.286-0.99c0-0.659,0.313-1.022,0.973-1.072c-0.362-0.478-0.924-0.643-1.566-0.643
		c-1.716,0-2.194,1.616-2.194,2.87c0,1.253,0.412,2.87,2.128,2.87c0.989,0,1.683-0.842,1.798-2.029H220.291z"/>
	<path fill="#FFFFFF" d="M223.374,321.104c-0.05,1.287,0.347,2.673,1.88,2.673c1.188,0,1.782-0.61,1.996-1.749h1.369
		c-0.215,1.881-1.353,2.985-3.546,2.985c-2.557,0-3.91-1.435-3.91-4.106c0-2.408,1.551-4.107,3.827-4.107
		c2.705,0,3.844,2.425,3.662,4.305H223.374z M226.441,320.016c0.017-1.04-0.312-2.062-1.484-2.062c-1.121,0-1.533,1.022-1.583,2.062
		H226.441z"/>
	<path fill="#FFFFFF" d="M240.444,323.413h-0.033c-0.66,1.122-1.501,1.6-2.59,1.6c-2.293,0-3.266-2.078-3.266-4.106
		c0-2.029,1.204-4.107,3.266-4.107c1.303,0,2.21,0.808,2.59,1.418h0.033v-2.573c0-0.494-0.165-0.726-0.677-0.726h-1.039v-1.088
		h3.662v9.121c0,0.495,0.148,0.726,0.659,0.726h0.858v1.089h-3.464V323.413z M238.465,323.727c1.104,0,1.979-0.924,1.979-2.92
		c0-1.798-0.875-2.722-1.979-2.722c-1.105,0-1.699,0.924-1.699,2.821C236.766,322.803,237.359,323.727,238.465,323.727z"/>
	<path fill="#FFFFFF" d="M253.308,321.896v0.495c0,1.848-0.742,2.622-2.128,2.622c-0.824,0-1.534-0.346-1.666-1.221
		c-0.61,0.924-1.666,1.221-2.705,1.221c-1.286,0-2.293-0.61-2.293-2.095c0-3.2,4.949-1.649,4.949-3.975
		c0-1.056-0.891-1.254-1.766-1.254c-0.462,0-1.236,0.148-1.533,0.544c0.609-0.082,1.088,0.182,1.088,0.858
		c0,0.742-0.511,0.973-1.154,0.973c-0.709,0-1.188-0.544-1.188-1.221c0-1.683,2.013-2.045,3.315-2.045
		c2.227,0,3.184,1.006,3.184,2.392v4.041c0,0.363,0.148,0.545,0.396,0.545c0.248,0,0.445-0.231,0.445-1.254v-0.627H253.308z
		 M249.465,320.691l-1.749,0.792c-0.479,0.214-0.989,0.479-0.989,1.253c0,0.693,0.313,1.04,0.989,1.04
		c1.122,0,1.749-0.957,1.749-2.013V320.691z"/>
	<path fill="#FFFFFF" d="M253.587,317.046h4.768v1.089h-0.71c-0.28,0-0.479,0.115-0.479,0.363c0,0.099,0.083,0.297,0.148,0.461
		l1.485,3.497h0.032l1.369-3.348c0.083-0.198,0.148-0.38,0.148-0.578c0-0.214-0.23-0.396-0.527-0.396h-0.709v-1.089h3.975v1.089
		c-0.594,0-1.089,0.115-1.353,0.742l-2.672,6.351c-0.907,2.161-1.765,3.035-3.299,3.035c-1.139,0-2.194-0.693-2.194-1.996
		c0-0.809,0.445-1.451,1.271-1.451c0.594,0,1.138,0.429,1.138,1.039c0,0.511-0.362,0.94-0.808,0.94c-0.132,0-0.297-0.017-0.43-0.017
		c0.182,0.313,0.495,0.396,0.809,0.396c0.99,0,1.468-0.512,1.781-1.204l0.545-1.204l-2.788-5.987
		c-0.197-0.429-0.659-0.644-1.501-0.644V317.046z"/>
</g>
</svg>
